<svg width="21" height="21" viewBox="0 0 21 21" fill="none" xmlns="http://www.w3.org/2000/svg">
<path d="M17.9393 20.0607C18.5251 20.6464 19.4749 20.6464 20.0607 20.0607C20.6464 19.4749 20.6464 18.5251 20.0607 17.9393L17.9393 20.0607ZM2 0.5C1.17157 0.5 0.5 1.17157 0.5 2L0.499999 15.5C0.499999 16.3284 1.17157 17 2 17C2.82843 17 3.5 16.3284 3.5 15.5V3.5H15.5C16.3284 3.5 17 2.82843 17 2C17 1.17157 16.3284 0.499999 15.5 0.499999L2 0.5ZM20.0607 17.9393L3.06066 0.939339L0.939339 3.06066L17.9393 20.0607L20.0607 17.9393Z" fill="#CCCCCC"/>
</svg>
