<svg width="34" height="34" viewBox="0 0 34 34" fill="none" xmlns="http://www.w3.org/2000/svg">
<circle cx="17" cy="17" r="16.5" fill="black" stroke="#808080"/>
<path d="M11.4697 21.4697C11.1768 21.7626 11.1768 22.2374 11.4697 22.5303C11.7626 22.8232 12.2374 22.8232 12.5303 22.5303L11.4697 21.4697ZM22.75 12C22.75 11.5858 22.4142 11.25 22 11.25H15.25C14.8358 11.25 14.5 11.5858 14.5 12C14.5 12.4142 14.8358 12.75 15.25 12.75L21.25 12.75L21.25 18.75C21.25 19.1642 21.5858 19.5 22 19.5C22.4142 19.5 22.75 19.1642 22.75 18.75V12ZM12.5303 22.5303L22.5303 12.5303L21.4697 11.4697L11.4697 21.4697L12.5303 22.5303Z" fill="#808080"/>
</svg>
